<svg xmlns="http://www.w3.org/2000/svg" xmlns:xlink="http://www.w3.org/1999/xlink" width="2000" height="2000" viewBox="0 0 2000 2000">
  <defs>
    <clipPath id="clip-wecine-logo-light">
      <rect width="2000" height="2000"/>
    </clipPath>
  </defs>
  <g id="wecine-logo-light" clip-path="url(#clip-wecine-logo-light)">
    <g id="wecine-logo-dark" transform="translate(-77.785 -113.412)">
      <path id="Tracé_1126" data-name="Tracé 1126" d="M1125.455,142.373c12.886,7.731,25.545,15.019,38.01,22.624,26.321,16.058,52.523,32.311,78.81,48.424,10.939,6.7,21.812,13.545,33.012,19.789,9.644,5.376,10.432,24.283,3.039,29.812a177.644,177.644,0,0,1-15.822,11.067c-17.945,10.59-766.219,440.3-786.252,451.931a81.413,81.413,0,0,0-15.065,11.132c-10.849,10.282-23.315,19.587-27.523,34.924a89.313,89.313,0,0,0-3.085,21.8c-.393,21.716,2.085,676.022,2.085,676.022.005,15.534,10.092,24.487,21.883,31.815,15.281,9.5,30.893,18.462,46.366,27.65,1.077.64,2.151,1.3,3.276,1.842,4.47,2.168,5.667,1.378,5.778-3.771.024-1.1,0-2.209,0-3.314q0-345.732.257-691.464A64.286,64.286,0,0,1,529,787.124c6.654-6.783,13.267-13.773,20.8-19.486,8.49-6.441,729.648-424.845,756.445-441.494,8.471-5.264,17.321-9.96,25.523-15.605,9.045-6.225,43.769-23.284,76.459-5.29,10.182,4.613,150.735,90.4,168.964,101.574,7.263,4.451,9.274,11.481,8.747,19.722-.5,7.892-5.45,11.9-11.643,15.431-21.191,12.09-795.032,455.889-812.241,467.8-10.34,7.157-21.494,15.591-24.826,29.273a100.082,100.082,0,0,0-2.9,21.889c-.625,39.12-1.186,680.152-1.186,680.152a36.244,36.244,0,0,0,10.83,26.647,85.942,85.942,0,0,0,25.851,18.307c11.858,5.4,23.351,11.613,34.973,17.531,3.869,1.97,5.9,1.258,5.641-3.432-.07-1.285-.01-2.577-.01-3.865q0-350.979,0-701.958c0-10.529,4.162-19.223,11.054-27.108,13.316-15.235,30.184-25.437,47.475-35.3,23.362-13.331,745.985-438.871,763.43-446.14,11.439-4.766,23.046-10.478,35.078-12.137,15.965-2.2,32.261-1.179,47.1,7.887,16.714,10.21,142.1,86.273,160.683,96.841,6.882,3.914,11.658,8.526,12.255,16.915.685,9.63-2.5,16.583-11.207,21.441-28.009,15.619-798.767,459.235-809.649,467.455-9.294,7.021-17.5,15.8-24.907,24.852-3.264,3.991-4.1,10.5-4.7,16.016-1,9.048-1.119,18.212-1.228,27.332-.178,14.91,2.161,922.344,2.161,922.344,0,13.69-9,20.377-22.143,15.8-5.622-1.958-10.823-5.262-16.013-8.3-25.531-14.944-723.7-418.811-744.443-431.683-13.218-8.2-25.6-17.7-34.914-30.488a72.894,72.894,0,0,1-14.164-38.054c-1.171-15.994-1.985-32.039-2.19-48.072-.192-15,1.662-832.472,2.411-875.445.4-22.925,9.145-43.268,29.717-56.149,18.576-11.632,742.569-428.885,764.227-440.145,14.037-7.3,28.2-14.586,42.947-20.2,10.027-3.82,21.07-5.7,31.82-6.682,10.093-.926,20.474-.17,30.583,1.052C1112.391,137.136,1118.707,140.088,1125.455,142.373Z" transform="translate(0)" fill="#fff"/>
      <path id="Tracé_1127" data-name="Tracé 1127" d="M1288.206,1207.351c-11.28,6.779-22.344,14.276-28.754,26.363a26.963,26.963,0,0,0-2.786,11.843c-.284,18.59-.163,37.186-.063,55.779.009,1.663.438,4.122,1.522,4.754,1.067.622,3.429-.246,4.858-1.083,22.591-13.251,543.792-314.767,567.927-327.789a29.852,29.852,0,0,1,17.2-2.8c9.181,1.268,13.616,5.981,13.649,16.953.217,73.822.1,147.646.124,221.469,0,11.359-7.425,17.064-16.208,21.91-15.281,8.431-538.952,309.6-553.474,318.61-12.219,7.578-23.051,17.078-29.7,30.041-2.587,5.042-3.236,11.374-3.622,17.194-1.095,16.55-1.683,33.136-2.291,49.714-.211,5.752,1.274,6.679,6.317,3.8,13.458-7.687,26.755-15.655,40.159-23.435,10.483-6.085,496.625-287.8,511.963-296.515,8.608-4.888,17.07-10.483,26.321-13.639,6.445-2.2,14.471-2.388,20.185,3.953,4.848,5.381,3.38,12.343,3.554,17.839.149,6.286.214,168.337-1.265,187.5-1.245,16.122-10.548,31.057-20.324,44.3-9.9,13.409-22.4,23.806-36.632,32.135-28.917,16.921-695.45,401.062-714.916,412.249-11.12,6.391-22.166,12.928-33.5,18.909-5.433,2.866-11.5,3.86-17.7,1.729-6.3-2.167-9.319-5.967-9.54-12.415-.044-1.287-.006-2.577-.006-3.866,0-265.652.327-531.306-.483-796.956-.085-27.924-1.59-55.976-1.61-83.974-.012-18,4.178-35.312,14.658-50.17a82.78,82.78,0,0,1,25.529-24.055c9.98-5.882,727.5-419.511,744.854-429.355,7.558-4.286,14.972-9.138,23.047-12.129,12.424-4.6,22.586,1.974,22.552,15.685-.178,71.8-.385,143.6.164,215.392.114,14.851-5.96,23.844-18.244,30.781C1815.6,902.792,1302.7,1198.641,1288.206,1207.351Z" transform="translate(86.311 51.25)" fill="#fff"/>
    </g>
  </g>
</svg>
